<?xml version="1.0" encoding="UTF-8"?>
<level>
  <owner>Fistachka</owner>
  <repo>fantazer4</repo>
  <version>v1.0.9</version>
  <next number="1" owner="Fistachka" repo="fantazer5"/>
  <readme>
    <ru>42aa83ae51511f6d54021a6d21551cd7775e61fdfdfeece3388912808080da03</ru>
    <en>501a8d2d0674359881c4083a6e6852708c42dce40af6da5d21a67c29a4b66c09</en>
  </readme>
  <license>b1b99f5538d1fd3702219bff50c665196dfa42f6ee755c37fe41a6178d6bc6e5</license>
  <exercise number="1">
    <scale>minor</scale>
    <cadenceVariant>harmonic</cadenceVariant>
    <bpm>131</bpm>
    <lowestNote>1</lowestNote>
    <tonalities>1</tonalities>
    <video name="29t.mp4" size="1978994" type="video/mp4" volume="0.5">33ca14327308b72d4a3eff41d5895073138e9dd34a23a5dfa1047c5c1ecfa25a</video>
    <notes>
      <note number="1" values="6" ticks="760" durationTicks="43" ppq="96" velocity="0.78"/>
      <note number="2" values="5" ticks="808" durationTicks="45" ppq="96" velocity="0.772"/>
      <note number="3" values="4" ticks="856" durationTicks="42" ppq="96" velocity="0.827"/>
      <note number="4" values="4" ticks="904" durationTicks="40" ppq="96" velocity="0.772"/>
      <note number="5" values="4" ticks="953" durationTicks="38" ppq="96" velocity="0.772"/>
      <note number="6" values="4" ticks="1000" durationTicks="95" ppq="96" velocity="0.819"/>
    </notes>
  </exercise>
  <exercise number="2">
    <scale>minor</scale>
    <cadenceVariant>harmonic</cadenceVariant>
    <bpm>131</bpm>
    <lowestNote>1</lowestNote>
    <tonalities>1</tonalities>
    <video name="30.mp4" size="1334436" type="video/mp4" volume="0.5">8d79935c542d4858f588acbe4c300945db617da872e5b67777d7874bf0ebf42b</video>
    <notes>
      <note number="1" values="5" ticks="70" durationTicks="43" ppq="96" velocity="0.78"/>
      <note number="2" values="6" ticks="118" durationTicks="45" ppq="96" velocity="0.772"/>
      <note number="3" values="5" ticks="166" durationTicks="42" ppq="96" velocity="0.827"/>
      <note number="4" values="4" ticks="214" durationTicks="31" ppq="96" velocity="0.772"/>
      <note number="5" values="4" ticks="263" durationTicks="28" ppq="96" velocity="0.772"/>
      <note number="6" values="4" ticks="310" durationTicks="95" ppq="96" velocity="0.819"/>
    </notes>
  </exercise>
  <exercise number="3">
    <scale>minor</scale>
    <cadenceVariant>harmonic</cadenceVariant>
    <bpm>131</bpm>
    <lowestNote>1</lowestNote>
    <tonalities>1</tonalities>
    <video name="31.mp4" size="2180416" type="video/mp4" volume="0.5">ccaefc1bb8ada4df760594b667a7c561ee4b338af0683168cfc63d1d6b6faae8</video>
    <notes>
      <note number="1" values="4" ticks="91" durationTicks="31" ppq="96" velocity="0.792"/>
      <note number="2" values="4" ticks="138" durationTicks="32" ppq="96" velocity="0.764"/>
      <note number="3" values="4" ticks="187" durationTicks="52" ppq="96" velocity="0.832"/>
      <note number="4" values="3" ticks="250" durationTicks="25" ppq="96" velocity="0.754"/>
      <note number="5" values="3" ticks="303" durationTicks="37" ppq="96" velocity="0.829"/>
      <note number="6" values="3" ticks="375" durationTicks="116" ppq="96" velocity="0.864"/>
    </notes>
  </exercise>
  <exercise number="4">
    <scale>minor</scale>
    <cadenceVariant>harmonic</cadenceVariant>
    <bpm>131</bpm>
    <lowestNote>1</lowestNote>
    <tonalities>1</tonalities>
    <video name="32.mp4" size="2226165" type="video/mp4" volume="0.5">d525b84fec8486453151d6c9c4440943b0e4ecbae15693c414b20559e2db2c8a</video>
    <notes>
      <note number="1" values="3" ticks="144" durationTicks="31" ppq="96" velocity="0.787"/>
      <note number="2" values="4" ticks="198" durationTicks="32" ppq="96" velocity="0.764"/>
      <note number="3" values="3" ticks="245" durationTicks="45" ppq="96" velocity="0.827"/>
      <note number="4" values="2" ticks="304" durationTicks="27" ppq="96" velocity="0.748"/>
      <note number="5" values="2" ticks="353" durationTicks="33" ppq="96" velocity="0.734"/>
      <note number="6" values="2" ticks="403" durationTicks="116" ppq="96" velocity="0.858"/>
    </notes>
  </exercise>
  <exercise number="5">
    <scale>minor</scale>
    <cadenceVariant>harmonic</cadenceVariant>
    <bpm>131</bpm>
    <lowestNote>1</lowestNote>
    <tonalities>1</tonalities>
    <video name="33.mp4" size="1878102" type="video/mp4" volume="0.5">2bb266923a4f57dbf1716cfc732c57df3483937e85eee217bdbce8d5e2ea185a</video>
    <notes>
      <note number="1" values="2" ticks="83" durationTicks="34" ppq="96" velocity="0.787"/>
      <note number="2" values="3" ticks="131" durationTicks="34" ppq="96" velocity="0.764"/>
      <note number="3" values="2" ticks="183" durationTicks="39" ppq="96" velocity="0.827"/>
      <note number="4" values="1" ticks="244" durationTicks="49" ppq="96" velocity="0.803"/>
      <note number="5" values="1" ticks="318" durationTicks="36" ppq="96" velocity="0.803"/>
      <note number="6" values="1" ticks="368" durationTicks="65" ppq="96" velocity="0.858"/>
    </notes>
  </exercise>
  <exercise number="6">
    <scale>minor</scale>
    <cadenceVariant>harmonic</cadenceVariant>
    <bpm>131</bpm>
    <lowestNote>4</lowestNote>
    <tonalities>1</tonalities>
    <video name="34.mp4" size="1748347" type="video/mp4" volume="0.5">f4c41ee342bde6b36cf1e0b8b9be6e21d84723a806c6782574a7c996729817a2</video>
    <notes>
      <note number="1" values="5" ticks="146" durationTicks="38" ppq="96" velocity="0.78"/>
      <note number="2" values="6" ticks="193" durationTicks="43" ppq="96" velocity="0.772"/>
      <note number="3" values="5" ticks="243" durationTicks="48" ppq="96" velocity="0.827"/>
      <note number="4" values="4" ticks="292" durationTicks="31" ppq="96" velocity="0.837"/>
      <note number="5" values="4" ticks="340" durationTicks="27" ppq="96" velocity="0.772"/>
      <note number="6" values="4" ticks="388" durationTicks="95" ppq="96" velocity="0.757"/>
    </notes>
  </exercise>
  <exercise number="7">
    <scale>minor</scale>
    <cadenceVariant>harmonic</cadenceVariant>
    <bpm>131</bpm>
    <lowestNote>4</lowestNote>
    <tonalities>1</tonalities>
    <video name="35.mp4" size="1136697" type="video/mp4" volume="0.5">56c67e9b607bc8e063908ef6681b3814140b4426d2d68aac78514f1eadd6e543</video>
    <notes>
      <note number="1" values="5" ticks="42" durationTicks="27" ppq="96" velocity="0.694"/>
      <note number="2" values="6" ticks="90" durationTicks="27" ppq="96" velocity="0.669"/>
      <note number="3" values="5" ticks="137" durationTicks="48" ppq="96" velocity="0.827"/>
      <note number="4" values="4" ticks="186" durationTicks="31" ppq="96" velocity="0.835"/>
      <note number="5" values="4" ticks="233" durationTicks="27" ppq="96" velocity="0.772"/>
      <note number="6" values="4" ticks="280" durationTicks="96" ppq="96" velocity="0.8"/>
    </notes>
  </exercise>
  <exercise number="8">
    <scale>minor</scale>
    <cadenceVariant>harmonic</cadenceVariant>
    <bpm>131</bpm>
    <lowestNote>4</lowestNote>
    <tonalities>1</tonalities>
    <video name="36.mp4" size="2488538" type="video/mp4" volume="0.5">f0a24298b037f4c322570173366325a2ed129564249a6a71e43ec9c2d20c7acc</video>
    <notes>
      <note number="1" values="48" ticks="102" durationTicks="31" ppq="96" velocity="0.78"/>
      <note number="2" values="48" ticks="155" durationTicks="32" ppq="96" velocity="0.764"/>
      <note number="3" values="48" ticks="205" durationTicks="45" ppq="96" velocity="0.827"/>
      <note number="4" values="38" ticks="291" durationTicks="71" ppq="96" velocity="0.74"/>
      <note number="5" values="38" ticks="383" durationTicks="54" ppq="96" velocity="0.732"/>
      <note number="6" values="38" ticks="458" durationTicks="116" ppq="96" velocity="0.85"/>
    </notes>
  </exercise>
  <exercise number="9">
    <scale>minor</scale>
    <cadenceVariant>harmonic</cadenceVariant>
    <bpm>131</bpm>
    <lowestNote>4</lowestNote>
    <tonalities>1</tonalities>
    <video name="37.mp4" size="3002406" type="video/mp4" volume="0.5">dd8c9779b22a7655c571ae3551fd9a686538f2e5435d0cfeb8d44d58f5222571</video>
    <notes>
      <note number="1" values="38" ticks="182" durationTicks="31" ppq="96" velocity="0.78"/>
      <note number="2" values="48" ticks="236" durationTicks="32" ppq="96" velocity="0.764"/>
      <note number="3" values="38" ticks="283" durationTicks="45" ppq="96" velocity="0.827"/>
      <note number="4" values="28" ticks="342" durationTicks="27" ppq="96" velocity="0.74"/>
      <note number="5" values="28" ticks="391" durationTicks="33" ppq="96" velocity="0.732"/>
      <note number="6" values="28" ticks="441" durationTicks="116" ppq="96" velocity="0.85"/>
    </notes>
  </exercise>
  <exercise number="10">
    <scale>minor</scale>
    <cadenceVariant>harmonic</cadenceVariant>
    <bpm>131</bpm>
    <lowestNote>4</lowestNote>
    <tonalities>1</tonalities>
    <video name="38.mp4" size="2614059" type="video/mp4" volume="0.5">ffb675e6763b090ed95907ee89a5f7a669d05db5f94c80e82078b8c69e211f87</video>
    <notes>
      <note number="1" values="28" ticks="143" durationTicks="32" ppq="96" velocity="0.787"/>
      <note number="2" values="28" ticks="187" durationTicks="30" ppq="96" velocity="0.764"/>
      <note number="3" values="28" ticks="235" durationTicks="47" ppq="96" velocity="0.827"/>
      <note number="4" values="18" ticks="285" durationTicks="33" ppq="96" velocity="0.803"/>
      <note number="5" values="18" ticks="332" durationTicks="28" ppq="96" velocity="0.803"/>
      <note number="6" values="18" ticks="380" durationTicks="125" ppq="96" velocity="0.858"/>
    </notes>
  </exercise>
</level>
